<svg version="1.1" id="Layer_1" xmlns="http://www.w3.org/2000/svg" xmlns:xlink="http://www.w3.org/1999/xlink" x="0px" y="0px"
	 viewBox="0 0 20.5 19.5" xml:space="preserve">
<g id="Iconly_Light-Outline_Heart" transform="translate(889.764 3451)">
	<g id="Heart" transform="translate(2 3)">
		<path id="Combined-Shape" d="M-881.5-3453c1.7-1,3.8-1.3,5.7-0.7c4.1,1.3,5.3,5.7,4.2,9.3c-1.7,5.5-9.2,9.7-9.5,9.8
			c-0.2,0.1-0.5,0.1-0.7,0c-0.3-0.2-7.7-4.2-9.5-9.8l0,0c-1.1-3.5,0.1-7.9,4.2-9.3C-885.3-3454.3-883.2-3454-881.5-3453z
			 M-886.7-3452.2c-3.3,1.1-4.1,4.6-3.2,7.4c1.4,4.4,6.9,7.9,8.4,8.8c1.5-0.9,7.1-4.4,8.4-8.8c0.9-2.8,0.1-6.3-3.2-7.4
			c-1.6-0.5-3.4-0.2-4.7,0.8c-0.3,0.2-0.6,0.2-0.9,0C-883.3-3452.5-885.1-3452.8-886.7-3452.2L-886.7-3452.2z M-877.3-3450.3
			c1.4,0.4,2.3,1.7,2.4,3.1c0,0.4-0.3,0.8-0.7,0.8c0,0,0,0-0.1,0c-0.4,0-0.7-0.3-0.7-0.7c-0.1-0.8-0.6-1.5-1.4-1.8
			c-0.4-0.1-0.6-0.5-0.5-0.9S-877.7-3450.4-877.3-3450.3L-877.3-3450.3L-877.3-3450.3z"/>
	</g>
</g>
</svg>
